<?xml version="1.0" standalone="no"?>
<!DOCTYPE svg PUBLIC "-//W3C//DTD SVG 20010904//EN"
 "http://www.w3.org/TR/2001/REC-SVG-20010904/DTD/svg10.dtd">
<svg version="1.0" xmlns="http://www.w3.org/2000/svg"
 width="6000.000000pt" height="7087.000000pt" viewBox="0 0 6000.000000 7087.000000"
 preserveAspectRatio="xMidYMid meet">

<g transform="translate(0.000000,7087.000000) scale(0.100000,-0.100000)"
fill="#000000" stroke="none">
<path d="M31775 66953 c-230 -19 -443 -77 -638 -174 -355 -177 -589 -454 -801
-949 -20 -47 -106 -218 -191 -380 -1123 -2135 -2096 -4392 -2877 -6675 -93
-273 -130 -403 -253 -885 -79 -311 -160 -626 -179 -700 -43 -164 -45 -229 -11
-337 64 -203 301 -455 542 -577 158 -79 340 -100 503 -57 339 89 596 342 710
696 67 209 544 1424 695 1770 126 291 730 1661 844 1917 289 647 807 1736
1237 2598 360 723 440 875 580 1110 158 266 327 490 369 490 24 0 68 -55 101
-125 18 -38 57 -149 87 -245 205 -659 476 -1534 652 -2105 499 -1624 932
-2815 1440 -3965 376 -852 669 -1418 1043 -2020 156 -251 325 -504 381 -569
123 -144 353 -276 658 -377 375 -124 657 -134 1031 -38 477 122 896 392 1511
975 599 566 1311 1233 1761 1648 283 262 661 613 840 781 179 168 415 388 525
489 1186 1094 2355 2265 2937 2942 480 559 662 857 761 1249 29 115 32 138 31
285 0 155 -2 165 -41 315 -52 197 -110 359 -176 491 -47 94 -59 110 -127 167
-230 192 -688 470 -880 534 -214 71 -437 28 -640 -122 -179 -133 -394 -415
-543 -714 -118 -237 -262 -455 -548 -828 -252 -329 -683 -845 -1074 -1284 -93
-105 -496 -557 -895 -1005 -1664 -1870 -2108 -2353 -2880 -3134 -458 -463
-449 -452 -720 -870 -78 -121 -150 -230 -159 -241 l-17 -22 -21 32 c-168 247
-487 958 -811 1801 -323 841 -589 1657 -1197 3670 -339 1121 -462 1507 -622
1953 -311 868 -592 1406 -881 1684 -134 129 -634 454 -911 593 -229 114 -484
181 -785 205 -121 9 -270 11 -361 3z"/>
<path d="M22745 66624 c-507 -28 -1122 -188 -1677 -437 -661 -297 -1303 -693
-2049 -1264 -456 -350 -792 -619 -969 -779 -159 -143 -525 -513 -661 -669
-1319 -1512 -2305 -3489 -2689 -5395 -58 -286 -74 -444 -74 -715 1 -251 13
-371 65 -630 174 -870 510 -1415 1098 -1779 321 -199 819 -383 1352 -500 255
-57 300 -61 604 -61 324 1 480 18 740 85 194 49 322 99 800 310 872 384 1057
476 2080 1033 420 229 1362 809 2015 1242 664 440 1030 724 1335 1036 248 254
363 426 411 616 29 115 30 174 5 271 -59 227 -273 397 -591 472 -142 33 -255
30 -466 -12 l-171 -35 -104 -73 c-308 -217 -667 -475 -1014 -730 -744 -546
-1180 -842 -1741 -1180 -733 -444 -1327 -750 -2076 -1071 -338 -145 -489 -197
-683 -236 -121 -24 -344 -24 -435 0 -185 49 -507 251 -678 427 -204 208 -360
593 -429 1055 -25 172 -25 634 0 830 86 665 345 1389 779 2173 261 472 824
1220 1402 1862 175 195 742 761 941 940 994 893 2001 1495 2844 1702 95 23
151 31 226 32 96 1 103 0 165 -34 89 -48 168 -130 257 -268 153 -235 311 -347
563 -398 144 -29 371 -8 652 60 139 33 194 55 266 106 141 98 203 254 202 503
-1 479 -196 827 -624 1112 -299 199 -713 336 -1166 384 -109 12 -402 20 -505
15z"/>
<path d="M50337 60165 c-63 -13 -86 -27 -345 -208 -523 -366 -1045 -708 -1607
-1053 -536 -328 -1419 -917 -1915 -1278 -890 -646 -1192 -905 -2209 -1890
-770 -747 -2008 -2038 -2100 -2191 -84 -140 -104 -315 -57 -508 39 -162 81
-244 168 -331 83 -81 276 -215 407 -280 105 -53 258 -106 401 -138 90 -20 131
-23 295 -23 165 1 201 4 273 23 176 48 212 72 481 326 260 245 555 555 936
981 536 601 847 912 1235 1235 283 235 678 505 1106 756 82 48 237 142 344
209 564 353 1084 630 1903 1014 592 278 808 371 1177 511 983 371 1309 548
1470 795 164 251 141 612 -64 1030 -95 193 -189 331 -272 399 -336 278 -772
513 -1104 597 -109 27 -146 31 -290 35 -116 2 -185 -1 -233 -11z"/>
<path d="M8740 60093 c-269 -27 -608 -114 -911 -234 -767 -302 -1729 -1047
-2415 -1871 -654 -785 -1263 -1875 -1681 -3007 -509 -1381 -799 -2853 -895
-4546 -17 -297 -17 -1443 0 -1715 42 -669 89 -1135 177 -1745 69 -479 89 -608
131 -840 163 -902 381 -1620 678 -2230 227 -466 442 -784 705 -1045 318 -316
665 -495 1000 -516 148 -10 343 32 486 104 272 136 493 451 595 846 76 296 78
573 6 801 -42 133 -94 202 -467 625 -463 525 -487 557 -626 847 -359 752 -556
1416 -628 2122 l-17 163 34 35 c57 60 200 177 299 244 180 123 302 262 639
734 190 266 386 564 615 935 315 509 454 721 784 1190 670 955 1275 1739 1732
2245 79 88 312 327 517 531 l372 371 9 -36 c6 -20 37 -138 70 -263 33 -124
101 -383 150 -576 49 -192 113 -430 142 -528 64 -220 81 -301 113 -524 25
-168 33 -244 91 -840 58 -588 123 -1017 204 -1342 74 -296 116 -387 230 -490
216 -195 518 -220 826 -69 127 63 231 141 373 283 150 148 248 279 322 431 99
203 140 381 140 606 0 157 -12 241 -76 516 -33 145 -49 235 -55 330 -12 183
-43 500 -95 995 -82 783 -122 1077 -199 1475 -29 154 -72 381 -95 505 -58 320
-281 1419 -346 1710 -124 556 -295 1180 -429 1570 -160 465 -371 900 -588
1210 -113 161 -183 246 -322 389 -182 187 -362 324 -551 419 -155 78 -403 150
-612 177 -101 13 -338 18 -432 8z m-591 -2319 c173 -58 305 -158 457 -348 192
-239 366 -517 520 -830 115 -232 243 -559 278 -707 l14 -57 -175 -183 c-808
-847 -1764 -1927 -2672 -3019 -626 -752 -1077 -1292 -1266 -1515 -103 -121
-280 -334 -393 -472 -189 -231 -207 -251 -216 -230 -6 13 -10 156 -10 347 0
276 4 367 27 605 73 748 125 1128 223 1630 251 1272 608 2262 1131 3134 269
448 516 773 818 1077 372 374 653 559 902 593 112 16 274 4 362 -25z"/>
<path d="M56145 54421 c-89 -11 -198 -40 -231 -61 -16 -11 -66 -48 -111 -82
-328 -253 -953 -518 -2378 -1008 -1703 -586 -2089 -724 -2820 -1015 -669 -266
-1576 -655 -1866 -800 -209 -106 -535 -349 -740 -554 -195 -194 -275 -330
-329 -561 -49 -209 -18 -426 96 -677 68 -148 134 -323 218 -576 46 -139 106
-302 133 -362 128 -288 330 -566 653 -899 219 -226 401 -377 1220 -1016 764
-595 1321 -1048 1700 -1379 975 -854 2151 -2037 2819 -2834 504 -603 941
-1004 1256 -1154 78 -37 82 -38 185 -36 209 3 407 79 530 203 194 194 221 473
81 832 -87 222 -223 411 -634 880 -861 981 -1644 1771 -2602 2624 -382 340
-548 482 -2130 1819 -792 670 -1046 898 -1264 1135 -120 131 -151 179 -151
236 0 57 26 98 119 186 191 182 521 366 1206 671 763 340 1249 511 2130 747
669 180 1490 363 2340 524 991 188 1669 343 1870 428 150 63 304 190 394 321
55 80 109 208 138 323 51 206 35 423 -49 679 -129 393 -504 866 -892 1126
-306 206 -638 310 -891 280z"/>
<path d="M30050 49283 c-407 -14 -810 -39 -1125 -69 -1749 -164 -3530 -609
-4995 -1247 -1468 -639 -2923 -1588 -4265 -2782 -578 -514 -1246 -1190 -1765
-1785 -1012 -1159 -1932 -2498 -2598 -3780 -88 -170 -2162 -4769 -2227 -4940
-18 -47 -58 -175 -89 -285 -170 -598 -207 -713 -286 -880 -134 -286 -290 -440
-558 -551 -361 -150 -795 -216 -1647 -254 -994 -43 -992 -43 -1405 -101 -1321
-184 -2768 -573 -4052 -1088 -610 -244 -849 -346 -1070 -456 -325 -162 -551
-316 -733 -499 -157 -158 -243 -298 -292 -476 -28 -101 -25 -319 5 -429 97
-357 397 -668 952 -986 74 -43 349 -184 610 -314 470 -234 499 -251 2731
-1533 1417 -815 2295 -1313 2361 -1342 158 -67 403 -151 819 -281 583 -183
814 -268 1053 -387 213 -106 354 -201 485 -324 128 -120 218 -259 291 -446 62
-157 94 -285 170 -668 39 -195 84 -406 101 -469 28 -107 1401 -3663 1556
-4031 614 -1457 1646 -3080 2780 -4372 427 -487 511 -563 1173 -1063 498 -376
622 -477 829 -679 194 -190 324 -358 405 -526 58 -119 73 -203 58 -327 -21
-166 -69 -293 -267 -703 -196 -407 -238 -509 -291 -715 -26 -100 -29 -125 -28
-275 0 -159 2 -169 32 -259 48 -139 111 -239 222 -351 79 -80 110 -103 180
-138 118 -57 200 -75 341 -74 201 2 338 32 712 158 566 190 767 226 973 174
126 -32 197 -73 300 -175 142 -140 207 -256 394 -690 159 -370 226 -489 344
-613 112 -117 262 -197 430 -229 120 -23 325 -13 481 22 292 66 558 184 1090
483 138 78 253 138 257 134 3 -4 23 -50 44 -102 50 -130 162 -352 233 -465
186 -296 427 -532 667 -653 271 -136 570 -158 856 -62 295 99 586 321 843 645
451 567 620 1162 651 2293 l7 252 61 0 c34 0 957 -22 2051 -49 l1990 -49 1048
43 1048 43 682 -330 c375 -181 716 -341 757 -355 370 -125 964 -104 1597 57
1155 295 1966 844 2857 1934 170 209 316 400 666 871 167 226 457 615 644 865
613 821 1003 1365 1462 2040 1017 1493 1900 3012 2596 4464 l129 270 463 1310
c255 721 473 1349 485 1396 12 47 41 177 66 290 100 458 172 591 425 781 239
180 565 352 960 506 323 125 609 216 1470 467 832 242 572 128 2582 1126 1727
859 2087 1041 2343 1188 1060 608 1607 1238 1746 2011 26 146 37 438 20 564
-68 508 -379 892 -981 1210 -292 155 -721 317 -1680 637 -1637 546 -3002 902
-4304 1120 -716 120 -1036 197 -1346 325 -220 91 -405 223 -516 366 -107 139
-208 400 -264 679 -38 191 -63 370 -95 680 -40 393 -83 731 -106 838 -12 53
-65 261 -119 462 -571 2125 -1271 3856 -2147 5310 -1554 2580 -3816 4647
-6538 5976 -2276 1111 -4815 1686 -7380 1672 -187 -1 -374 -3 -415 -5z m7937
-10244 c724 -97 1432 -409 2049 -905 1022 -820 1821 -2131 2283 -3744 351
-1228 545 -2467 602 -3850 13 -321 7 -1395 -10 -1675 -25 -410 -33 -534 -52
-760 -85 -1027 -239 -2143 -484 -3525 -70 -393 -322 -1730 -375 -1985 -412
-1996 -1038 -3673 -1728 -4629 -124 -172 -226 -291 -386 -452 -194 -194 -331
-301 -518 -403 l-76 -42 -7 58 c-51 463 -136 719 -293 885 -67 70 -126 109
-212 139 -53 18 -87 23 -185 23 -242 1 -438 -66 -1085 -367 -206 -96 -408
-189 -447 -205 l-73 -31 -144 287 c-239 475 -377 672 -552 789 -384 257 -820
18 -1266 -692 -240 -382 -693 -1325 -955 -1990 -282 -713 -450 -1361 -524
-2020 -26 -233 -36 -721 -20 -960 33 -472 121 -909 277 -1375 42 -124 76 -229
77 -234 2 -10 -83 -40 -300 -106 -524 -159 -1034 -247 -1763 -302 -218 -17
-1176 -17 -1450 0 -968 59 -1681 147 -3525 432 -1437 222 -1723 260 -2430 315
-764 61 -1084 99 -1435 170 -462 94 -870 255 -1155 454 -233 163 -536 474
-746 766 -209 290 -318 483 -769 1355 -208 402 -252 481 -515 916 -1563 2587
-2677 5206 -3355 7889 -356 1408 -553 2660 -637 4055 -24 404 -24 1531 0 1945
64 1090 198 2025 422 2940 571 2340 1648 4126 3165 5252 649 482 1415 858
2205 1083 401 114 694 159 1168 182 1041 48 2200 -198 3083 -657 929 -482
1514 -1168 1697 -1990 78 -346 108 -856 77 -1266 -67 -871 -308 -1730 -872
-3119 -387 -952 -536 -1292 -686 -1568 -550 -1011 -1230 -1748 -1927 -2087
-608 -296 -1047 -240 -1776 226 -177 113 -230 140 -294 146 -68 7 -106 -13
-134 -69 -94 -196 47 -442 392 -684 227 -160 505 -307 957 -507 202 -89 575
-288 2675 -1426 1342 -728 2478 -1346 2525 -1374 47 -28 177 -110 290 -182
543 -348 775 -455 1027 -471 l88 -5 875 379 875 379 2435 1170 2435 1170 255
73 c496 142 772 241 1005 360 340 173 503 344 513 538 4 77 -13 162 -32 162
-6 0 -427 -83 -935 -185 l-924 -185 -98 25 c-680 173 -1295 708 -1956 1705
-752 1134 -1320 2489 -1587 3789 -115 555 -166 1038 -166 1552 -1 317 9 491
41 744 157 1248 708 2202 1653 2859 141 99 307 196 544 321 521 274 828 379
1217 415 130 12 1623 86 1787 89 48 0 122 -4 165 -10z m-7786 -9257 c469 -91
962 -297 1639 -685 96 -55 348 -204 560 -330 850 -508 917 -543 1540 -794 816
-330 1088 -468 1348 -686 74 -61 206 -206 197 -215 -2 -2 -61 -17 -131 -33
-409 -95 -857 -267 -1429 -550 -301 -149 -574 -296 -1170 -629 -645 -362
-1131 -622 -1370 -733 -110 -52 -513 -225 -895 -386 -765 -320 -713 -304 -875
-275 -303 53 -587 194 -1207 599 -194 127 -816 495 -2092 1240 -999 583 -1816
1062 -1816 1066 0 11 174 140 300 221 344 225 641 370 1455 713 833 352 909
388 1705 833 756 421 1182 592 1635 658 136 19 471 12 606 -14z m6059 -11862
c208 -453 451 -734 700 -811 145 -45 261 -47 435 -7 226 52 463 160 985 452
113 63 206 113 208 111 2 -2 20 -70 42 -151 234 -911 474 -1209 948 -1180 199
12 403 64 886 225 l324 109 6 -42 c42 -307 31 -934 -24 -1341 -203 -1489
-1065 -2888 -2400 -3894 -380 -286 -669 -464 -1015 -624 -582 -269 -1156 -411
-1590 -394 -339 13 -535 90 -852 334 -442 341 -732 823 -858 1423 -76 364 -86
912 -25 1390 102 793 376 1711 833 2785 419 983 745 1435 1247 1722 41 23 78
39 81 35 4 -4 35 -68 69 -142z m-15778 -6010 c381 -77 954 -205 1968 -439
2137 -493 3217 -661 4507 -697 l231 -7 6 -41 c17 -120 28 -380 22 -529 -16
-444 -96 -782 -272 -1142 -230 -473 -604 -870 -1139 -1213 -60 -38 -113 -67
-116 -64 -4 4 -43 95 -89 202 -106 251 -225 510 -296 641 -303 559 -649 792
-1061 714 -158 -30 -288 -82 -697 -277 -393 -187 -552 -240 -726 -241 -167 0
-263 37 -378 147 -118 113 -179 224 -330 603 -56 139 -124 298 -152 354 -124
250 -255 378 -463 451 -150 53 -205 61 -427 62 -273 0 -375 -15 -920 -135
-384 -86 -712 -141 -749 -127 -7 2 145 350 779 1776 7 17 16 21 32 17 13 -3
134 -28 270 -55z"/>
<path d="M22725 33513 c-601 -78 -1017 -446 -1137 -1006 -31 -146 -31 -418 0
-563 61 -285 184 -521 367 -705 169 -170 363 -276 615 -336 109 -26 468 -25
590 1 274 59 478 164 650 336 247 247 377 609 357 991 -36 670 -473 1196
-1061 1278 -73 10 -314 13 -381 4z m-38 -338 c68 -33 153 -117 184 -182 19
-39 21 -56 16 -129 -4 -69 -11 -97 -41 -161 -69 -146 -147 -189 -329 -181 -90
4 -109 8 -162 35 -96 50 -134 103 -165 232 -37 157 50 337 195 397 53 22 71
24 152 21 75 -3 102 -9 150 -32z"/>
<path d="M35425 33313 c-86 -11 -202 -38 -302 -69 -574 -182 -920 -705 -873
-1323 48 -629 456 -1108 1036 -1215 323 -60 711 2 979 157 298 172 494 454
572 827 14 66 18 129 17 280 0 177 -3 206 -28 314 -35 149 -73 253 -138 377
-186 356 -516 596 -892 648 -73 10 -304 13 -371 4z m-64 -339 c122 -28 183
-92 213 -227 45 -200 -7 -327 -167 -408 l-82 -41 -115 4 c-105 3 -120 6 -170
33 -69 38 -122 92 -154 158 -49 98 -29 285 40 365 36 42 147 106 210 121 61
14 149 12 225 -5z"/>
<path d="M18230 30140 c-534 -45 -945 -172 -1068 -328 -57 -72 -67 -101 -67
-193 0 -81 2 -90 44 -175 38 -78 59 -104 160 -204 181 -180 343 -280 631 -387
646 -240 1501 -375 2168 -342 656 32 1144 208 1262 454 32 67 32 175 1 256
-49 127 -163 265 -315 378 -172 128 -272 179 -516 260 -359 121 -790 210
-1270 262 -220 23 -838 35 -1030 19z"/>
<path d="M40830 29620 c-52 -4 -180 -13 -285 -19 -520 -32 -786 -56 -1015 -92
-585 -91 -993 -277 -1255 -569 -358 -402 -67 -683 836 -809 533 -74 1069 -68
1729 20 614 81 1061 233 1354 458 149 113 280 279 307 384 39 156 -35 279
-233 389 -296 164 -965 275 -1438 238z"/>
</g>
</svg>
